<?xml version="1.0" standalone="no"?>
<!DOCTYPE svg PUBLIC "-//W3C//DTD SVG 20010904//EN"
 "http://www.w3.org/TR/2001/REC-SVG-20010904/DTD/svg10.dtd">
<svg version="1.0" xmlns="http://www.w3.org/2000/svg"
 width="300.000000pt" height="300.000000pt" viewBox="0 0 300.000000 300.000000"
 preserveAspectRatio="xMidYMid meet">
<metadata>
Created by potrace 1.10, written by Peter Selinger 2001-2011
</metadata>
<g transform="translate(0.000000,300.000000) scale(0.100000,-0.100000)"
fill="#000000"  stroke="none">
<path d="M814 2047 c-2 -7 -4 -53 -2 -102 2 -71 6 -90 21 -99 33 -21 52 4 55
75 l3 65 62 -4 c70 -4 91 8 85 50 -3 22 -7 23 -111 26 -83 2 -109 0 -113 -11z
m171 -27 c-3 -4 -24 -8 -47 -8 -50 -1 -77 -29 -78 -79 0 -17 -5 -35 -10 -38
-7 -5 -10 16 -8 62 l3 68 40 5 c49 6 106 1 100 -10z"/>
<path d="M1967 2054 c-15 -15 -6 -54 14 -65 12 -6 50 -9 86 -7 l66 3 1 -64 c1
-49 5 -66 19 -75 12 -8 22 -8 35 0 14 9 17 27 17 110 l0 99 -116 3 c-63 1
-118 -1 -122 -4z m211 -31 c10 -16 2 -123 -9 -123 -5 0 -9 16 -7 36 3 51 -27
74 -98 74 -30 0 -54 4 -54 9 0 19 157 22 168 4z"/>
<path d="M1329 1889 c-16 -17 -29 -37 -29 -44 0 -32 -35 -43 -141 -47 -90 -2
-111 -6 -129 -23 -47 -41 -50 -66 -50 -365 0 -305 3 -328 55 -368 27 -22 31
-22 478 -22 l450 0 33 36 34 35 0 321 0 320 -34 34 -34 34 -106 0 -106 0 -31
50 c-17 28 -39 55 -49 60 -10 6 -85 10 -165 10 l-147 0 -29 -31z m301 0 c26
-6 43 -20 60 -48 35 -55 52 -63 149 -68 115 -6 128 -9 148 -40 15 -23 17 -57
16 -321 -1 -206 -5 -303 -14 -318 -6 -12 -25 -30 -43 -39 -28 -15 -75 -16
-453 -13 l-423 3 -27 28 -28 27 0 309 c0 382 -11 356 156 363 106 4 111 6 134
32 14 16 27 37 30 47 12 36 54 49 160 48 55 0 116 -5 135 -10z"/>
<path d="M1440 1630 c-96 -28 -180 -136 -180 -231 0 -52 30 -127 70 -171 152
-174 420 -66 420 169 0 29 -6 68 -14 87 -20 47 -73 104 -120 128 -43 22 -133
31 -176 18z m167 -41 c80 -39 130 -131 120 -220 -27 -222 -312 -275 -412 -76
-29 59 -33 135 -10 189 16 40 73 94 119 114 48 20 133 17 183 -7z"/>
<path d="M1487 1514 c-4 -4 -7 -27 -7 -51 l0 -44 -37 5 c-47 7 -66 -4 -61 -35
3 -21 9 -24 50 -27 l47 -3 3 -47 c3 -43 5 -47 28 -47 23 0 25 4 28 47 l3 47
47 3 c43 3 47 5 50 30 3 22 -2 29 -21 33 -14 4 -35 5 -48 3 -22 -3 -25 2 -29
42 -4 36 -9 46 -25 48 -12 2 -24 0 -28 -4z m54 -98 l28 -24 -24 -16 c-14 -9
-25 -23 -25 -31 0 -8 -4 -15 -10 -15 -5 0 -10 5 -10 10 0 6 -9 19 -21 31 l-21
21 23 24 c13 12 26 23 28 23 2 1 16 -10 32 -23z"/>
<path d="M828 1019 c-15 -8 -18 -25 -18 -109 0 -65 4 -101 12 -106 17 -11 229
-7 240 4 6 6 8 20 6 33 -3 23 -7 24 -90 27 l-88 3 0 69 c0 58 -3 71 -19 80
-23 12 -22 12 -43 -1z m34 -91 c6 -63 32 -88 89 -88 21 0 39 -4 39 -10 0 -5
-32 -8 -72 -7 l-73 2 -3 78 c-3 86 13 106 20 25z"/>
<path d="M2145 1013 c-13 -12 -16 -31 -13 -80 l3 -63 -72 0 c-61 0 -74 -3 -83
-19 -13 -25 -13 -27 4 -43 10 -10 39 -13 109 -12 53 2 101 5 107 9 15 9 13
198 -2 213 -16 16 -34 15 -53 -5z m24 -179 c-9 -11 -27 -14 -66 -11 -64 5 -83
17 -27 17 55 0 74 17 80 70 9 76 19 78 22 7 2 -44 -2 -74 -9 -83z"/>
</g>
</svg>
